<?xml version="1.0" encoding="utf-8"?>
<!-- Generator: Adobe Illustrator 27.3.0, SVG Export Plug-In . SVG Version: 6.00 Build 0)  -->
<svg version="1.1" id="Layer_1" xmlns="http://www.w3.org/2000/svg" xmlns:xlink="http://www.w3.org/1999/xlink" x="0px" y="0px"
	 viewBox="0 0 308 308" style="enable-background:new 0 0 308 308;" xml:space="preserve">
<style type="text/css">
	.st0{fill:#123456;}
	.st1{fill:#ABCDEF;}
</style>
<path class="st0" d="M206,228c-48.24-11.19-82.67,21.87-95,10c-9.97-9.6-1.64-44.88,71-152c10.66,29.51,24.66,55.35,42,56
	c25.45,0.95,37.43-53.12,54-51c29.15,3.72,42.71,177.49,8,188C267.77,284.52,254.9,239.34,206,228z"/>
<path class="st1" d="M2,30c6.18-3.39,42.17,75.63,80,71c20.69-2.53,28.99-28.5,35-26c15.01,6.23-29.2,171.09-52,168
	c-10.61-1.44-5.13-37.71-26-108C21.6,76.4-2.7,32.58,2,30z"/>
</svg>
